<?xml version="1.0" encoding="utf-8"?>
<!-- Generator: Adobe Illustrator 19.2.1, SVG Export Plug-In . SVG Version: 6.00 Build 0)  -->
<svg version="1.1" id="layer" xmlns="http://www.w3.org/2000/svg" xmlns:xlink="http://www.w3.org/1999/xlink" x="0px" y="0px"
	 viewBox="0 0 652 652" style="enable-background:new 0 0 652 652;" xml:space="preserve">
<style type="text/css">
	.st0{fill:url(#SVGID_1_);}
	.st1{fill:url(#SVGID_2_);}
	.st2{fill:url(#SVGID_3_);}
	.st3{fill:url(#SVGID_4_);}
	.st4{fill:#7D7068;}
</style>
<linearGradient id="SVGID_1_" gradientUnits="userSpaceOnUse" x1="-13.4853" y1="313.7424" x2="-10.8124" y2="313.7424" gradientTransform="matrix(-24.5 67.3 -67.3 -24.5 20870.7715 8809.3301)">
	<stop  offset="0" style="stop-color:#0891B4"/>
	<stop  offset="0.41" style="stop-color:#0891B4"/>
	<stop  offset="0.45" style="stop-color:#168EB0"/>
	<stop  offset="0.52" style="stop-color:#3D87A6"/>
	<stop  offset="0.6" style="stop-color:#6D7D9A"/>
	<stop  offset="0.63" style="stop-color:#787B95"/>
	<stop  offset="0.68" style="stop-color:#957488"/>
	<stop  offset="0.74" style="stop-color:#C46A73"/>
	<stop  offset="0.78" style="stop-color:#E46365"/>
	<stop  offset="0.81" style="stop-color:#E66365"/>
	<stop  offset="0.97" style="stop-color:#EC6464"/>
	<stop  offset="1" style="stop-color:#EC6464"/>
</linearGradient>
<path class="st0" d="M39.7,289.8c0.2,0.9,1.1,1.4,2,1.2c0.3-0.1,0.5-0.2,0.7-0.4l0,0c6.2-3.2,12.5-6.2,18.9-9
	C72,277,82,270.8,91,263.3c3.7-3.1,6.9-6.7,9.5-10.7c2.7-3.5,3.2-8.2,1.5-12.3c-0.2-0.6-0.5-1.2-0.7-1.8c-1.8-3.5-4.6-6.5-8-8.6
	c-0.3-0.2-0.7-0.3-1-0.3c-0.2,0-0.3,0-0.5,0c-0.3,0.1-0.6,0.2-0.9,0.4c-5.8,5.3-11.9,10.3-18.2,14.9c-8.2,5.9-16.9,11.3-25.9,15.9
	l-1,0.5c-8.4,4.8-11.8,15.2-8,24.1C38.3,287,38.9,288.4,39.7,289.8z"/>
<linearGradient id="SVGID_2_" gradientUnits="userSpaceOnUse" x1="-13.4853" y1="312.8332" x2="-10.8124" y2="312.8332" gradientTransform="matrix(-24.5 67.3 -67.3 -24.5 20870.7715 8809.3301)">
	<stop  offset="0" style="stop-color:#0891B4"/>
	<stop  offset="0.41" style="stop-color:#0891B4"/>
	<stop  offset="0.45" style="stop-color:#168EB0"/>
	<stop  offset="0.52" style="stop-color:#3D87A6"/>
	<stop  offset="0.6" style="stop-color:#6D7D9A"/>
	<stop  offset="0.63" style="stop-color:#787B95"/>
	<stop  offset="0.68" style="stop-color:#957488"/>
	<stop  offset="0.74" style="stop-color:#C46A73"/>
	<stop  offset="0.78" style="stop-color:#E46365"/>
	<stop  offset="0.81" style="stop-color:#E66365"/>
	<stop  offset="0.97" style="stop-color:#EC6464"/>
	<stop  offset="1" style="stop-color:#EC6464"/>
</linearGradient>
<path class="st1" d="M115,339.4c-0.1,0-0.2,0-0.3,0c-0.5,0-0.7,0.5-0.3,1c2,2.1,2.6,5.3,1.4,8c-1,3.4-3.3,6.2-6.3,8
	c-3.5,2.1-7.2,4-11,5.5c-5.3,2.1-10.5,4.5-15.5,7.1c-2.4,1.3-4.7,2.9-6.7,4.9c-5.3,4.9-5.5,13.2-0.6,18.5c0.3,0.3,0.7,0.7,1,1
	c0.4,0.5,1.2,0.6,1.7,0.1c0,0,0.1-0.1,0.1-0.1c8-6.4,16.9-11.8,26.3-15.9c5-2.2,9.9-4.8,14.5-7.7c3.7-2.1,6.1-6,6.4-10.2
	C126.5,351.3,122.4,343.3,115,339.4z"/>
<linearGradient id="SVGID_3_" gradientUnits="userSpaceOnUse" x1="-13.4853" y1="313.2964" x2="-10.8124" y2="313.2964" gradientTransform="matrix(-24.5 67.3 -67.3 -24.5 20870.7715 8809.3301)">
	<stop  offset="0" style="stop-color:#0891B4"/>
	<stop  offset="0.41" style="stop-color:#0891B4"/>
	<stop  offset="0.45" style="stop-color:#168EB0"/>
	<stop  offset="0.52" style="stop-color:#3D87A6"/>
	<stop  offset="0.6" style="stop-color:#6D7D9A"/>
	<stop  offset="0.63" style="stop-color:#787B95"/>
	<stop  offset="0.68" style="stop-color:#957488"/>
	<stop  offset="0.74" style="stop-color:#C46A73"/>
	<stop  offset="0.78" style="stop-color:#E46365"/>
	<stop  offset="0.81" style="stop-color:#E66365"/>
	<stop  offset="0.97" style="stop-color:#EC6464"/>
	<stop  offset="1" style="stop-color:#EC6464"/>
</linearGradient>
<path class="st2" d="M114.7,257c-0.2-0.1-0.5-0.2-0.7-0.2c-0.6,0-1.1,0.5-1.1,1.1c0,0.3,0.1,0.6,0.4,0.8c3.8,4.6,4.9,10.8,2.9,16.5
	c-2.2,6.8-6.8,12.5-12.9,16c-7.1,4.3-14.6,8.1-22.3,11.1c-10.8,4.3-21.4,9.2-31.6,14.8c-5,2.7-9.6,6-13.7,9.9
	c-10.7,10.1-11.2,27-1.1,37.8c0.6,0.7,1.3,1.3,2,1.9c0.9,1,2.4,1.1,3.4,0.2c0.1-0.1,0.2-0.1,0.2-0.2c16.4-13.1,34.5-23.9,53.8-32.2
	c10.2-4.4,20.1-9.7,29.4-15.7c7.2-4.6,11.9-12.3,12.9-20.8C138.2,281.2,129.6,264.9,114.7,257z"/>
<linearGradient id="SVGID_4_" gradientUnits="userSpaceOnUse" x1="-13.2714" y1="313.3233" x2="-11.053" y2="313.3233" gradientTransform="matrix(-24.5 67.3 -67.3 -24.5 20870.7715 8809.3301)">
	<stop  offset="0" style="stop-color:#0891B4"/>
	<stop  offset="0.41" style="stop-color:#0891B4"/>
	<stop  offset="0.45" style="stop-color:#168EB0"/>
	<stop  offset="0.52" style="stop-color:#3D87A6"/>
	<stop  offset="0.6" style="stop-color:#6D7D9A"/>
	<stop  offset="0.63" style="stop-color:#787B95"/>
	<stop  offset="0.68" style="stop-color:#957488"/>
	<stop  offset="0.74" style="stop-color:#C46A73"/>
	<stop  offset="0.78" style="stop-color:#E46365"/>
	<stop  offset="0.81" style="stop-color:#E66365"/>
	<stop  offset="0.97" style="stop-color:#EC6464"/>
	<stop  offset="1" style="stop-color:#EC6464"/>
</linearGradient>
<path class="st3" d="M45.7,261.5l1-0.5c9-4.6,17.7-10,26-15.9c6.4-4.6,12.5-9.5,18.3-14.8c0.2-0.2,0.5-0.4,0.9-0.4
	c0.2,0,0.3,0,0.5,0c0.4,0,0.7,0.1,1,0.3c3.3,2.1,6.1,5,7.9,8.6c0.3,0.6,0.5,1.2,0.7,1.8c1.8,4.1,1.2,8.7-1.5,12.3
	c-2.6,4-5.8,7.6-9.5,10.7c-9,7.6-19,13.8-29.7,18.4c-6.4,2.7-12.7,5.8-18.9,9l0,0c-0.7,0.6-1.7,0.5-2.3-0.1
	c-0.2-0.2-0.3-0.4-0.4-0.7c-0.7-1.4-1.4-2.7-2-4.2C33.7,276.7,37.2,266.3,45.7,261.5z M125.7,359.5c-0.3,4.3-2.7,8.1-6.4,10.2
	c-4.6,3-9.5,5.6-14.5,7.7c-9.5,4.1-18.4,9.4-26.4,15.9c-0.4,0.5-1.2,0.6-1.7,0.1c0,0-0.1-0.1-0.1-0.1c-5.5-4.7-6.1-13-1.4-18.5
	c0.3-0.4,0.6-0.7,1-1c2-1.9,4.3-3.5,6.8-4.8c5-2.7,10.2-5.1,15.5-7.2c3.8-1.5,7.5-3.4,11-5.5c3-1.8,5.3-4.6,6.3-8
	c1.2-2.7,0.6-5.9-1.4-8c-0.4-0.5,0-1,0.3-1c0.1,0,0.2,0,0.3,0C122.4,343.1,126.7,351.2,125.7,359.5z M123.5,318.8
	c-9.4,6-19.2,11.3-29.4,15.7c-19.3,8.3-37.5,19.2-53.9,32.3c-0.9,1-2.4,1.1-3.4,0.2c-0.1-0.1-0.2-0.1-0.2-0.2
	c-11.2-9.7-12.4-26.5-2.7-37.7c0.6-0.7,1.2-1.3,1.9-2c4.1-3.9,8.7-7.2,13.7-9.9c10.2-5.6,20.8-10.5,31.6-14.8
	c7.7-3.1,15.2-6.8,22.3-11.1c6.2-3.5,10.8-9.3,12.9-16c2-5.6,0.9-11.9-2.9-16.5c-0.5-0.4-0.5-1.1-0.1-1.5c0.2-0.2,0.5-0.4,0.8-0.4
	c0.3,0,0.5,0.1,0.7,0.2c15,7.9,23.5,24.2,21.6,41C135.3,306.5,130.6,314.1,123.5,318.8z"/>
<path class="st4" d="M289,301.4c-1.8-21.1-13.9-39.6-37.1-39.6c-20.2,0-35.5,16.8-37.8,39.6H289z M254.6,368.5
	c-31.9,0-58-24.5-58-60.4v-0.5c0-33.5,23.6-60.5,55.7-60.5c34.4,0,53.9,28.1,53.9,58.8c0,4.4-3.6,8-8,8l0,0h-84.1
	c2.5,25.2,20.2,39.3,40.9,39.3c12.5,0.1,24.5-4.8,33.5-13.5c3-2.8,7.8-2.7,10.6,0.4c1.3,1.4,2,3.1,2,5c0,2.2-1,4.2-2.7,5.6
	c-11.5,11.7-27.4,18-43.8,17.5 M326.8,230.7c-0.3-4.8,3.4-8.9,8.2-9.1c4.8-0.3,8.9,3.4,9.1,8.2c0,0.3,0,0.6,0,1v127.5
	c0.2,4.7-3.5,8.6-8.1,8.8c-0.1,0-0.3,0-0.4,0c-4.8,0.1-8.7-3.7-8.8-8.5c0-0.1,0-0.2,0-0.3V230.7z M366.7,257.3
	c-0.3-4.8,3.4-8.9,8.2-9.1c4.8-0.3,8.9,3.4,9.1,8.2c0,0.3,0,0.6,0,1v101c0.2,4.7-3.5,8.6-8.1,8.8c-0.1,0-0.3,0-0.4,0
	c-4.8,0-8.7-3.8-8.7-8.6c0-0.1,0-0.1,0-0.2V257.3z M403.3,308.3v-0.5c-0.2-33.3,26.6-60.6,60-60.8c15.8-0.1,31,6,42.4,17
	c1.7,1.5,2.7,3.7,2.7,6c0,4.6-3.7,8.3-8.3,8.3l0,0c-2,0-4-0.7-5.6-2c-8.3-7.6-17.7-13.9-31.7-13.9c-23.6,0-41.6,20-41.6,44.9v0.5
	c0,25.2,18.4,45.2,42.8,45.2c13.4,0,23.8-6.1,32.4-14.2c1.3-1.4,3.1-2.2,4.9-2.2c4.3,0.1,7.8,3.6,7.9,7.9c0,2-0.8,3.9-2.2,5.3
	c-11.3,12.2-27.2,19-43.8,18.7c-32.9,0-59.6-26.8-59.6-59.7c0-0.2,0-0.3,0-0.5 M610.9,323.2v-11.3c-11.1-3.3-22.6-4.9-34.2-4.9
	c-21.8,0-33.9,9.4-33.9,24.1v0.5c0,14.6,13.4,23.1,29.2,23.1C593.3,354.7,610.9,341.6,610.9,323.2 M525.3,332.2v-0.5
	c0-24.5,20.2-37.4,49.7-37.4c12.1-0.1,24.1,1.6,35.7,4.9v-4.2c0-20.9-12.8-31.7-34.6-31.7c-10.4,0-20.7,2.2-30.1,6.5
	c-1,0.4-2.1,0.6-3.2,0.7c-4.2,0-7.6-3.2-7.8-7.4c0-3.1,1.9-5.9,4.7-7.2c12-5.3,24.9-8,38-7.9c16.4,0,29,4.3,37.4,12.8
	c7.9,7.9,11.9,19.1,11.9,33.9v63.6c0.2,4.5-3.3,8.4-7.8,8.5c-0.2,0-0.3,0-0.5,0c-4.4,0.2-8.1-3.3-8.3-7.7c0-0.1,0-0.2,0-0.3v-10.7
	c-9.9,13.1-25.6,20.5-42,20c-21.6,0-43.4-12.4-43.4-36.2 M406.5,421.5c0.3,3.2,3.1,5.6,6.3,5.4c0.1,0,0.2,0,0.3,0
	c4.8,0,8.7-3,8.7-7.2v-2.5c-2.5-0.8-5.1-1.2-7.7-1.1C409.3,415.9,406.5,418.1,406.5,421.5 M406.1,407.9l-1.1-3.3
	c2.9-1.5,6.2-2.2,9.5-2.2c7.1,0,11.1,3.7,11.1,10.7v16.4h-3.7v-4c-2.2,3-5.7,4.7-9.4,4.6c-4.9,0-9.8-2.7-9.8-8.4
	c0-5.7,4.5-8.7,11.2-8.7c2.7,0,5.4,0.4,8,1.1v-0.9c0-4.8-2.9-7.3-7.8-7.3C411.2,405.9,408.5,406.5,406.1,407.9 M434.7,429.5h-3.8
	v-26.7h3.9v7c1.6-4.5,5.9-7.5,10.7-7.5v4.3h-0.3c-5.7,0-10.4,4.2-10.4,12.3L434.7,429.5z M448.5,402.7h3.9v26.7h-3.9V402.7z
	 M448.3,392.4h4.4v4.4h-4.4V392.4z M460.4,421.5c0,3.4,3,5.3,6.6,5.3c4.8,0,8.7-3,8.7-7.2v-2.5c-2.5-0.8-5.1-1.2-7.7-1.1
	C463.1,415.9,460.4,418.1,460.4,421.5 M459.9,407.9l-1.2-3.3c3-1.5,6.2-2.2,9.5-2.2c7.1,0,11.1,3.7,11.1,10.7v16.4h-3.7v-4
	c-2.2,3-5.7,4.7-9.4,4.6c-4.9,0-9.8-2.7-9.8-8.4c0-5.7,4.6-8.7,11.2-8.7c2.7,0,5.4,0.4,8,1.1v-0.9c0-4.8-2.9-7.3-7.8-7.3
	c-2.8,0-5.5,0.7-8,2 M500.6,429.5h-3.9v-26.7h3.9v4.7c1.7-3.3,5.2-5.4,9-5.3c6.3,0,10,4.4,10,10.7v16.6h-3.9v-15.6c0-5-2.7-8-7.2-8
	c-4.3,0-7.8,3.4-7.9,7.7c0,0.2,0,0.4,0,0.7V429.5z M543.3,402.7h3.8v26.7h-3.8v-4.6c-1.7,3.3-5.2,5.4-9,5.3c-6.3,0-10-4.4-10-10.7
	v-16.8h3.9v15.7c0,5,2.7,8,7.2,8c4.3,0,7.9-3.5,7.9-7.8c0-0.2,0-0.4,0-0.6V402.7z M564.8,405.6c-5.4,0.1-9.7,4.5-9.6,9.9
	c0,0.2,0,0.4,0,0.5c-0.3,5.5,3.9,10.2,9.4,10.5c0.1,0,0.1,0,0.2,0c5.4-0.1,9.7-4.5,9.6-9.9c0-0.2,0-0.3,0-0.5
	c0.3-5.5-4-10.2-9.5-10.5C564.9,405.6,564.8,405.6,564.8,405.6 M564.8,430.1c-7.5,0-13.6-6-13.7-13.5c0-0.1,0-0.3,0-0.4
	c0.2-7.5,6.4-13.5,13.9-13.3s13.5,6.4,13.3,13.9c-0.2,7.4-6.3,13.4-13.7,13.3 M600.3,402.7h4.2l-11.4,27h-3.4l-11.3-27h4.3l8.8,22.2
	L600.3,402.7z M608.2,421.5c0,3.4,3,5.3,6.6,5.3c4.8,0,8.7-3,8.7-7.2v-2.5c-2.5-0.8-5.1-1.2-7.7-1.1
	C611,415.9,608.2,418.1,608.2,421.5 M607.8,407.9l-1.1-3.3c2.9-1.5,6.2-2.2,9.5-2.2c7.1,0,11.1,3.7,11.1,10.7v16.4h-3.7v-4
	c-2.2,3-5.7,4.7-9.5,4.6c-4.9,0-9.8-2.7-9.8-8.4c0-5.7,4.5-8.7,11.2-8.7c2.7,0,5.4,0.4,8,1.1v-0.9c0-4.8-2.9-7.3-7.8-7.3
	c-2.8,0-5.5,0.7-8,2"/>
</svg>
