<svg xmlns="http://www.w3.org/2000/svg" viewBox="0 0 250 250"><path fill="none" stroke="#4c494b" stroke-width="2" d="M79.28 128.02q.26 2.73 3.01 2.48m54.17-24.5q-3.24.65-6.61-.16m33.9-19.3q-.01.56.3.99a.97.93 27.1 0 1 .2.58l.24 49.38m-18.99-40.7c.64-1.45-1.24-3.62-1.75-2.33m49.92-.27q2.94 10.91-6.03 16.61a.81.79-17 0 0-.37.67q-.01 1.03 1.02.28m.75.25q-.46.37-.11.56c7.28 4.13 9.75 12.07 4.8 18.97q-2.04 2.84-4.85 5.15m-22-6.38q9.09 1.71 10.22-6.48m-.32-4.2q-2.03-6.21-8.69-4.87m-1.15-6.21q3.76.56 7-1.6 1.84-1.24 1.35-3.19m.96-3.61q-.97-8.04-9.31-6.61M124 99.29q-.91.62-2.12.56a1 .99 5.7 0 0-1.04.85l-.63 4.23m1.04 15.53c-.93-3.35.64-8.96-5.32-8.15" vector-effect="non-scaling-stroke"/><path fill="#434343" d="M79.28 128.02q.26 2.73 3.01 2.48l2.24.07a1.01 1 1.2 0 1 .97 1v4.93a1 1 0 0 1-1 1h-30a1 1 0 0 1-1-1v-5a1 1 0 0 1 1.11-.99q2.76.3 4.63-1.79a1 .97 67.1 0 0 .26-.67V96.2a1.06 1.01 27.7 0 0-.21-.62q-1.8-2.31-4.73-2.08a1.01 1-1.8 0 1-1.08-1.01l.07-5a1 1 0 0 1 1-.99H84.5a1 1 0 0 1 1 1v4.95a1 1 0 0 1-1.08 1c-4.75-.4-5.44 2.62-5.43 6.7q.02 12.76 0 25.5c0 .8.35 1.51.29 2.37Zm38.04 2.37 1.74.12a1 .99 1.8 0 1 .94.99v5a1 1 0 0 1-1 1H89.5a1.01 1 0 0 1-1.01-1l.02-5.01a1.01 1-87.9 0 1 1.07-1c3.18.21 4.91-1.13 4.91-4.51l.02-27.48c.01-3.46-1.73-5.03-5.01-5.03a1.01 1 .3 0 1-1-1V87.5a1 1 0 0 1 1-1h23.49a1 1 0 0 1 1 1l.02 39.69q0 2.98 3.31 3.2ZM136.46 106q-3.24.65-6.61-.16c.3-3.9 1.12-9.6-2.88-12.18a1.02.98 60.3 0 0-.54-.16H117a1 1 0 0 1-1-1v-5a1 1 0 0 1 1-1h18.4a1 1 0 0 1 1 1l.06 18.5Zm27.29-19.46q-.01.56.3.99a.97.93 27.1 0 1 .2.58l.24 49.38-24.49-.01a1.01 1 .3 0 1-1-1v-5a.99.99 0 0 1 1.06-.99c4.55.28 5.45-2.16 5.45-6.25q-.02-13.73-.01-27.45c.64-1.45-1.24-3.62-1.75-2.33q-1.73-1-3.79-1.08a1.01 1 1.5 0 1-.96-1v-4.82a1.01 1-.3 0 1 1-1l23.75-.02Z"/><path fill="#544f53" d="M163.75 86.54q.3-.11.58-.06a.8.8 0 0 1 .68.78q.36 25.11-.52 50.23l-.24-49.38a.97.93 27.1 0 0-.2-.58q-.31-.43-.3-.99Z"/><path fill="#434343" d="M193.67 94.19q2.94 10.91-6.03 16.61a.81.79-17 0 0-.37.67q-.01 1.03 1.02.28l.75.25q-.46.37-.11.56c7.28 4.13 9.75 12.07 4.8 18.97q-2.04 2.84-4.85 5.15-10.14 1.36-20.75.85a1.01 1 .3 0 1-.95-.95l-.3-6.28q9.09 1.71 10.22-6.48l-.32-4.2q-2.03-6.21-8.69-4.87-1.82-2.61-1.15-6.21 3.76.56 7-1.6 1.84-1.24 1.35-3.19l.96-3.61q-.97-8.04-9.31-6.61l.16-5.99a.99.99 0 0 1 .97-.97c8.94-.22 21.16-2.55 25.6 7.62Z"/><path fill="#544f53" d="M166.94 93.53q8.34-1.43 9.31 6.61-2.13-6.62-9.31-6.61Zm-21.44 3.26-1.75-2.33c.51-1.29 2.39.88 1.75 2.33Zm48.17-2.6q4.31 10.82-5.23 16.75-.37.23-.15.81-1.03.75-1.02-.28a.81.79-17 0 1 .37-.67q8.97-5.7 6.03-16.61ZM124 99.29q-.91.62-2.12.56a1 .99 5.7 0 0-1.04.85l-.63 4.23-.17-4.85a1 .99-88.5 0 1 1.08-1.03l2.88.24Z"/><path fill="#434343" d="m124 99.29 1.68.31a1 1 0 0 1 .82.98v18.88a1 1 0 0 1-1 1h-4.25c-.93-3.35.64-8.96-5.32-8.15l.26-4.42a1.01 1-3.8 0 1 .81-.92q2.05-.4 3.21-2.04l.63-4.23a1 .99 5.7 0 1 1.04-.85q1.21.06 2.12-.56Z"/><path fill="#544f53" d="M175.29 103.75q.49 1.95-1.35 3.19-3.24 2.16-7 1.6 5.51-.22 8.35-4.79Zm-45.44 2.09q3.37.81 6.61.16l.04.38a.64.63 81.6 0 1-.51.69q-3.53.73-6.14-1.23Zm-13.92 6.47c5.96-.81 4.39 4.8 5.32 8.15q-.22.07-.42.08a.81.81 0 0 1-.81-.79c-.04-1.73.29-3.81-.49-5.25q-1.01-1.87-3.6-2.19Zm73.11-.31c10.97 5.31 10.44 19.08-.16 24.68q2.81-2.31 4.85-5.15c4.95-6.9 2.48-14.84-4.8-18.97q-.35-.19.11-.56Zm-12.26 7.62q-2.82-4.57-8.69-4.87 6.66-1.34 8.69 4.87Zm.32 4.2q-1.13 8.19-10.22 6.48 7.7.53 10.22-6.48Zm-97.82 4.2 3.01 2.48q-2.75.25-3.01-2.48ZM153 153.07V159a1 1 0 0 1-1 1h-.5a1 1 0 0 1-1-1v-5.98a1.01 1.01 0 0 0-.67-.95q-1.79-.62.08-1.88a1.01 1.01 0 0 0 .45-.76q.32-4.89 5.36-3.69a1 .99 6.4 0 1 .77.95q.02 1.86-1.93.93a1 1 0 0 0-1.3.41q-1.21 2.11 1.21 1.97a1 1 0 0 1 1.05 1.05q-.06 1.22-1.38 1.03a1 1 0 0 0-1.14.99Zm13.03-.02q-.06 2.59.04 5.21.09 2.37-1.88 1.72a1.01 1 9.3 0 1-.69-.95v-6.09a1.01 1 10.8 0 0-.64-.93q-1.87-.73.02-1.73a1.03 1.01 76.6 0 0 .53-.88q.04-4.81 5.06-3.62a1.02 1.01 87.2 0 1 .72.66c.91 2.79-4.01-.2-3.18 2.81a1.01 1.01 0 0 0 .85.73l1.11.13a.8.8 0 0 1 .68 1q-.29 1.11-1.5.97a1 1 0 0 0-1.12.97Zm-104.81-4.34c-1.66-.43-5.24-1.44-4.65 1.81a.98.98 0 0 0 .67.77l4.76 1.59a1.02.99-5.5 0 1 .55.44c3.98 6.75-4.02 7.34-8.39 6.25a.8.8 0 0 1-.55-1.07l.13-.34a1 .99 18.7 0 1 1.2-.59c1.42.39 7.66 1.43 5.52-2.42a1.03 1.02 83.5 0 0-.58-.47l-4.7-1.45a.94.93-9.5 0 1-.51-.36c-3.58-4.85 2.45-7.77 6.67-6.36 1 .34 1.96 1.54.53 2.15a1 .96-48.4 0 1-.65.05Z"/><rect width="2.5" height="14" x="145.5" y="146" fill="#544f53" rx=".65"/><path fill="#544f53" d="M79.09 150h.97a1 1 0 0 1 .99 1.17q-.2 1.14-1.89.86a1 1 0 0 0-1.16.99v3.77a1 1 0 0 0 1.1 1q1.15-.12 1.83.44 2.13 1.75-.63 1.77l-3.08.03q-2.16.01-1.77-2.29.56-3.26-.61-6.26a1.01.99 53.1 0 1 .13-.96l1.8-2.4a.83.81 15.8 0 1 .59-.32q.91-.06.74 1.04a1.01 1-85.6 0 0 .99 1.16Zm12.88 7.05c.87.03 1.38-6.29 2.92-7.04q.21-.1.41-.14a1.01 1-86.8 0 1 1.15 1.29q-1.56 4.9-3.17 9.76c-.86 2.58-2.39 3.73-5.05 3.01a1.01 1.01 0 0 1-.74-1.07q.14-1.4 2.1-.78 1.99.63 1.23-1.32c-.39-1-5.63-12.11-1.45-10.78a1.01 1.01 0 0 1 .66.7l1.64 6.12a.33.32 83.9 0 0 .3.25Zm20.29 1.25 1.48-.37a1 1 0 0 0 .76-.97V151a1 1 0 0 1 1-1h.52a1.01 1-90 0 1 1 1.01l-.06 7.97a1 .99-85.3 0 1-1.15.98l-1.48-.23a1.03 1-54 0 0-.63.11c-6.53 3.5-5.22-6.14-5.19-8.88a1.01 1 89.4 0 1 .96-.99l.48-.02a1 1 0 0 1 1.05.99l.02 6.39a1 1 0 0 0 1.24.97Zm10.46-7.63q.89-.09 1.69-.56a1 .99 60 0 1 1.37.37q.58 1.02-.31 2.15a1.01 1 18.9 0 1-.79.38L123 153a1 .99-89.7 0 0-1 1v4.94a1 .99-2.5 0 1-.91.99l-.5.05a1 1 0 0 1-1.09-1v-8.02a1 1 0 0 1 .96-1q.83-.03 1.56.51a.98.98 0 0 0 .7.2Zm49.78 3.36V159a1 1 0 0 1-1 1h-.48a1 1 0 0 1-1-.99c-.02-1.5-.7-9.1 1.13-9.23a1.01 1 72.2 0 1 .94.49q.85 1.46 2.17.03a1.02 1.01-67.6 0 1 .76-.32l.54.01a1 1 0 0 1 .97 1.06q-.13 2.55-2.83 2a1 1 0 0 0-1.2.98Z"/><path fill="#544f53" d="M69.56 157.94q.68.11 3.03-.09a1 1 0 0 1 1.07 1.18l-.09.46a1.01 1 5.6 0 1-.99.81c-4.93-.04-6.92-.13-7.22-5.17-.42-7.27 10.31-6.59 8.41-.34a1.01 1-81.4 0 1-.96.71h-3.67a1 1 0 0 0-.97 1.24q.26 1.01 1.39 1.2Zm1.85-5.33q-1.63-1.23-2.83-.12-1.12 1.04.37 1.37.96.21 2 .19 2.31-.05.46-1.44Zm30.478 7.711a5.25 4.76 93.3 0 1-4.45-5.515 5.25 4.76 93.3 0 1 5.054-4.967 5.25 4.76 93.3 0 1 4.45 5.515 5.25 4.76 93.3 0 1-5.054 4.967Zm.63-2.187a3.09 2.2 84.1 0 0 1.87-3.3 3.09 2.2 84.1 0 0-2.506-2.848 3.09 2.2 84.1 0 0-1.87 3.3 3.09 2.2 84.1 0 0 2.506 2.848Zm28.662-1.704q-.79-.5-1.71-.81c-2.3-.78-3.11-1.91-2.32-4.27a1.02.99 84.5 0 1 .44-.55c.99-.58 6.71-2.04 6.11.81a.81.8 9.1 0 1-.88.63l-2.18-.27q-2.05-.25-.7 1.32.98 1.12 2.86 1.12a.98.98 0 0 1 .8.39c3.82 5-2.54 5.53-5.96 5.04a1 1 0 0 1-.84-1.17l.08-.41a.8.79 22.3 0 1 1.23-.51q1.52 1.02 2.91.46 1.82-.73.16-1.78Z"/><path fill="#544f53" d="M139.33 155.49c-3.22-.07-.1 3.17 3.32 2.36a1 1 0 0 1 1.23 1q-.02.7-.83.89-9.3 2.2-7.34-6.81.56-2.58 3.31-2.9 5.39-.64 4.91 4.55a1 .99 1.9 0 1-.97.9q-1.85.05-3.63.01Zm1.27-3.5a1 .99 47.4 0 0-1.28-.06c-3.72 2.83 4.84 3.31 1.28.06Zm40.96 5.95q.55.19 3.28-.13a.8.79 84.8 0 1 .88.74q.1 1.21-2.27 1.57-1.71.25-3.38-.18-2.12-.54-2.57-2.69-.55-2.57.04-4.29c1.49-4.4 8.58-4.5 8.49 1.56a1 1 0 0 1-1.01.98h-3.81a1 1 0 0 0-.89 1.46q.35.67 1.24.98Zm1.3-5.67q-1.17-.62-2.03-.03-1.76 1.19.28 1.78.79.23 1.45.12 2.89-.49.3-1.87Zm7.28 4.87q1.4 1.67 3.9.5a.99.99 0 0 1 1.28.39q.82 1.37-1.26 1.85-4.02.92-4.84.12c-3.95-3.84-2.19-11.94 4.29-9.76q3.06 1.03 2.44 4.44a1 1 0 0 1-.98.82h-4.06q-2.14 0-.77 1.64Zm2.89-4.64q-1.73-1.1-2.94.15t.52 1.36q1.29.08 2.12-.05 2.12-.32.3-1.46Z"/></svg>